:SAMPLES-PER-SECOND 30
:FULLY-SPECIFIED
:DEGREES
32
root  -62.7623 39.7258 -5.1259 13.6972 84.6451 16.4911
RightUpLeg  -22.6641 -5.86359 0.80175
RightLeg  7.28792 -5.14127 2.90674
RightFoot  -2.93227 -0.494442 6.44855
RightToes  0.000482159 0.542163 -0.142577
Spine  13.8919 -1.45885 -5.79207
Spine1  2.09715 -2.87611 3.16906
HEad  2.38327 10.3702 -2.80703
LeftShoulder1  6.52576 -9.43268 -43.8863
LeftArm  -14.7587 5.79685 -28.6063
LeftForeArm  31.0583 -4.96786 -3.61812
LeftHand  -0.25398 0.0180481 5.50724
RightShoulder  3.63793 6.04712 32.1428
RightArm  -25.0637 -28.1147 47.3973
RightForeArm  4.49851 5.31216 2.49779
RightHand  -2.09467 5.30667 -22.7954
LeftUpLeg  11.6419 6.89501 -3.75738
LeftLeg  12.3645 18.8116 -1.39789
LeftFoot  -21.9759 0.0867526 -0.489439
LeftToes  1.06246e-005 4.65855e-005 -8.18503e-006
33
root  -61.7028 39.4544 -5.2428 13.9963 84.8398 16.8081
RightUpLeg  -23.0934 -5.55817 0.859123
RightLeg  6.77546 -5.92345 3.1397
RightFoot  -3.20939 -0.509505 6.83094
RightToes  0.000482159 0.542163 -0.142577
Spine  13.6372 -1.83067 -5.49085
Spine1  2.79851 -3.39026 3.73597
HEad  1.74295 10.3075 -3.5373
LeftShoulder1  6.90562 -9.99514 -44.5417
LeftArm  -10.7682 3.51481 -30.7339
LeftForeArm  38.2177 -6.14827 -5.11183
LeftHand  -0.25398 0.0180481 5.50724
RightShoulder  3.76655 6.29481 32.4941
RightArm  -23.5574 -28.5606 48.0671
RightForeArm  8.94329 6.30006 2.88725
RightHand  -1.66027 3.90326 -20.8509
LeftUpLeg  13.5312 6.95885 -3.80193
LeftLeg  12.3065 18.6021 -1.49426
LeftFoot  -23.1377 0.0817036 -0.548413
LeftToes  1.06246e-005 4.65855e-005 -8.18503e-006
34
root  -60.5255 39.2013 -5.34878 10.2321 85.5396 12.8121
RightUpLeg  -23.6918 -6.40804 1.77337
RightLeg  8.11849 -6.01708 2.76206
RightFoot  -2.60186 -0.456705 5.77575
RightToes  0.000482159 0.542163 -0.142577
Spine  13.2666 -2.27262 -4.75655
Spine1  3.28249 -4.04588 4.80847
HEad  0.992019 10.4796 -4.58984
LeftShoulder1  7.20415 -10.4731 -44.8982
LeftArm  -5.37582 1.91303 -32.8011
LeftForeArm  45.568 -9.07014 -6.56992
LeftHand  -0.25398 0.0180481 5.50724
RightShoulder  3.80058 6.3681 32.5531
RightArm  -21.2521 -28.9125 47.4971
RightForeArm  12.9167 8.03519 3.55202
RightHand  -1.45937 3.51479 -19.1926
LeftUpLeg  15.5034 7.1972 -3.15973
LeftLeg  11.9541 17.3508 -1.63246
LeftFoot  -24.2094 -0.00501396 -1.33004
LeftToes  1.06246e-005 4.65855e-005 -8.18503e-006
35
root  -59.275 39.0047 -5.42613 0.619598 86.6382 2.57071
RightUpLeg  -24.8955 -8.62494 3.65505
RightLeg  11.0921 -4.99717 1.68901
RightFoot  -0.117459 -0.255404 2.66437
RightToes  0.000482159 0.542163 -0.142577
Spine  12.7878 -2.74187 -4.01474
Spine1  3.41932 -4.86898 6.51879
HEad  0.13699 10.7904 -5.70792
LeftShoulder1  7.36302 -10.7896 -44.8735
LeftArm  2.16794 1.2247 -35.1461
LeftForeArm  48.409 -13.7801 -6.41541
LeftHand  -0.25398 0.0180481 5.50724
RightShoulder  3.79939 6.40895 32.3826
RightArm  -18.7283 -28.7472 46.0981
RightForeArm  13.9659 9.37335 4.25951
RightHand  -1.55493 3.9713 -19.425
LeftUpLeg  17.0533 7.7383 -1.91269
LeftLeg  11.7959 14.9325 -1.5756
LeftFoot  -24.5922 -0.146628 -2.53676
LeftToes  1.06246e-005 4.65855e-005 -8.18503e-006
36
root  -57.9549 38.8648 -5.49221 -24.3854 87.4608 -22.8902
RightUpLeg  -26.1742 -11.601 6.28903
RightLeg  15.0568 -2.75715 0.186067
RightFoot  3.01928 0.0985388 -0.640973
RightToes  0.000482159 0.542163 -0.142577
Spine  12.6139 -3.19987 -2.90445
Spine1  3.53721 -5.66409 8.21386
HEad  -1.15914 10.9996 -6.64071
LeftShoulder1  7.42627 -11.003 -44.5824
LeftArm  9.33935 1.24891 -37.4277
LeftForeArm  45.7013 -19.2803 -4.32664
LeftHand  -0.25398 0.0180481 5.50724
RightShoulder  3.84321 6.52768 32.3657
RightArm  -16.6779 -27.3721 44.0872
RightForeArm  13.3224 9.60389 4.68503
RightHand  -1.74711 4.47847 -20.6947
LeftUpLeg  18.4786 8.92509 0.0794809
LeftLeg  12.5474 11.8028 -0.970033
LeftFoot  -24.0425 -0.277194 -3.78186
LeftToes  1.06246e-005 4.65855e-005 -8.18503e-006
